<?xml version="1.0" encoding="UTF-8"?>
<svg width="21px" height="20px" viewBox="0 0 21 20" version="1.1" xmlns="http://www.w3.org/2000/svg" xmlns:xlink="http://www.w3.org/1999/xlink">
    <!-- Generator: Sketch 49.3 (51167) - http://www.bohemiancoding.com/sketch -->
    <title>linkedin</title>
    <desc>Created with Sketch.</desc>
    <defs></defs>
    <g id="Page-1" stroke="none" stroke-width="1" fill="none" fill-rule="evenodd">
        <g id="CARD" transform="translate(-258.000000, -393.000000)" fill="#FFFFFF">
            <g id="Group" transform="translate(14.000000, 63.000000)">
                <g id="linkedin-copy" transform="translate(236.000000, 323.000000)">
                    <path d="M8.98535156,13.9789342 L13.086077,13.9789342 L13.086077,26.7142857 L8.98535156,26.7142857 L8.98535156,13.9789342 Z M15.5503627,26.7142857 L15.5503627,16.8571429 L15.4829799,13.9789342 L19.5259487,13.9789342 L19.6607143,15.7405134 C20.0971004,15.0795168 20.6265315,14.5532944 21.2490234,14.1618304 C21.8715154,13.7703663 22.5742148,13.5746373 23.3571429,13.5746373 C24.8331547,13.5746373 26.0235725,14.0800033 26.9284319,15.0907506 C27.8332914,16.1014978 28.2857143,17.5117097 28.2857143,19.3214286 L28.2857143,26.7142857 L24.1753627,26.7142857 L24.1753627,19.7353516 C24.1753627,18.7599003 23.9684033,18.0363444 23.5544782,17.5646624 C23.1405532,17.0929803 22.6031004,16.8571429 21.9421038,16.8571429 C21.2875246,16.8571429 20.7436545,17.0705196 20.3104771,17.4972796 C19.8772997,17.9240395 19.6607143,18.5320831 19.6607143,19.3214286 L19.6607143,26.7142857 L15.5503627,26.7142857 Z M11.0164621,11.9285714 L10.9875837,11.9285714 C10.2752476,11.9285714 9.69447769,11.711986 9.2452567,11.2788086 C8.7960357,10.8456312 8.57142857,10.3081784 8.57142857,9.66643415 C8.57142857,9.01827243 8.80084871,8.48081966 9.25969587,8.05405971 C9.71854303,7.62729976 10.3169606,7.41392299 11.0549665,7.41392299 C11.7801376,7.41392299 12.3657204,7.62729976 12.8117327,8.05405971 C13.257745,8.48081966 13.4871651,9.01827243 13.5,9.66643415 C13.5,10.3145959 13.2721842,10.853653 12.8165458,11.2836217 C12.3609073,11.7135903 11.7608854,11.9285714 11.0164621,11.9285714 Z" id="linkedin"></path>
                </g>
            </g>
        </g>
    </g>
</svg>