<?xml version="1.0" encoding="UTF-8"?>
<svg width="29px" height="32px" viewBox="0 0 29 32" version="1.1" xmlns="http://www.w3.org/2000/svg" xmlns:xlink="http://www.w3.org/1999/xlink">
    <!-- Generator: Sketch 49.3 (51167) - http://www.bohemiancoding.com/sketch -->
    <title>Fill-1</title>
    <desc>Created with Sketch.</desc>
    <defs></defs>
    <g id="Page-1" stroke="none" stroke-width="1" fill="none" fill-rule="evenodd">
        <g id="Artboard" transform="translate(-2.000000, -14.000000)" fill="#FFFFFF" fill-rule="nonzero">
            <g id="quarry-logo" transform="translate(2.000000, 14.000000)">
                <path d="M14.2996304,0.1 C14.080091,0.1 13.8605515,0.155565317 13.663927,0.265974323 L0.635703394,7.60997731 C0.241715128,7.83151695 0,8.24140137 0,8.68448065 L0,23.371765 C0,23.8148443 0.241715128,24.2247287 0.635703394,24.4462683 L13.663927,31.7895497 C13.8605515,31.9006803 14.080091,31.9562456 14.2996304,31.9562456 C14.5191698,31.9562456 14.7387093,31.9006803 14.9353338,31.7895497 L27.9642966,24.4462683 C28.3575457,24.2247287 28.6,23.8148443 28.6,23.371765 L28.6,8.68448065 C28.6,8.24140137 28.3575457,7.83151695 27.9642966,7.60997731 L14.9353338,0.265974323 C14.7387093,0.155565317 14.5191698,0.1 14.2996304,0.1" id="Fill-1"></path>
            </g>
        </g>
    </g>
</svg>