<?xml version="1.0" encoding="UTF-8"?>
<svg width="205px" height="32px" viewBox="0 0 205 32" version="1.1" xmlns="http://www.w3.org/2000/svg" xmlns:xlink="http://www.w3.org/1999/xlink">
    <!-- Generator: Sketch 49.3 (51167) - http://www.bohemiancoding.com/sketch -->
    <title>quarry-logo</title>
    <desc>Created with Sketch.</desc>
    <defs></defs>
    <g id="Latest" stroke="none" stroke-width="1" fill="none" fill-rule="evenodd">
        <g id="Artboard-2" transform="translate(-6.000000, -11.000000)" fill="#FFFFFF">
            <g id="quarry-logo" transform="translate(6.000000, 11.000000)">
                <path d="M14.2996304,0.1 C14.080091,0.1 13.8605515,0.155565317 13.663927,0.265974323 L0.635703394,7.60997731 C0.241715128,7.83151695 0,8.24140137 0,8.68448065 L0,23.371765 C0,23.8148443 0.241715128,24.2247287 0.635703394,24.4462683 L13.663927,31.7895497 C13.8605515,31.9006803 14.080091,31.9562456 14.2996304,31.9562456 C14.5191698,31.9562456 14.7387093,31.9006803 14.9353338,31.7895497 L27.9642966,24.4462683 C28.3575457,24.2247287 28.6,23.8148443 28.6,23.371765 L28.6,8.68448065 C28.6,8.24140137 28.3575457,7.83151695 27.9642966,7.60997731 L14.9353338,0.265974323 C14.7387093,0.155565317 14.5191698,0.1 14.2996304,0.1" id="Fill-1"></path>
                <path d="M49.2667995,25 L47.1811995,25 L47.1811995,9.2656 L42.9835995,9.2656 L42.9835995,7.3912 L53.4643995,7.3912 L53.4643995,9.2656 L49.2667995,9.2656 L49.2667995,25 Z M71.1963996,25 L69.1107996,25 L69.1107996,16.8688 L61.8243996,16.8688 L61.8243996,25 L59.7123996,25 L59.7123996,7.3912 L61.8243996,7.3912 L61.8243996,15.0208 L69.1107996,15.0208 L69.1107996,7.3912 L71.1963996,7.3912 L71.1963996,25 Z M87.6875997,25 L78.6323997,25 L78.6323997,7.3912 L87.6875997,7.3912 L87.6875997,9.2656 L80.7443997,9.2656 L80.7443997,15.0472 L87.5027997,15.0472 L87.5027997,16.9216 L80.7443997,16.9216 L80.7443997,23.1256 L87.6875997,23.1256 L87.6875997,25 Z M110.0572,25.3168 C105.7804,25.3168 103.378,21.304 103.378,16.2088 C103.378,11.1136 105.7804,7.1008 110.0572,7.1008 C114.3604,7.1008 116.7628,11.1136 116.7628,16.2088 C116.7628,19.1656 115.9708,21.7264 114.466,23.3896 L115.4692,24.9208 L113.9908,25.8712 L113.0932,24.4984 C112.222,25.0264 111.2188,25.3168 110.0572,25.3168 Z M110.0572,23.4424 C110.7964,23.4424 111.4564,23.2312 112.0108,22.8616 L109.9252,19.6144 L111.4564,18.6904 L113.278,21.5416 C114.1492,20.2216 114.598,18.3208 114.598,16.2088 C114.598,12.1432 112.9876,8.9752 110.0572,8.9752 C107.1268,8.9752 105.5428,12.1432 105.5428,16.2088 C105.5428,20.2216 107.1268,23.4424 110.0572,23.4424 Z M129.2676,25.3168 C125.73,25.3168 123.5916,23.1784 123.5916,19.2976 L123.5916,7.3912 L125.7036,7.3912 L125.7036,19.2976 C125.7036,22.0432 126.9972,23.4424 129.2676,23.4424 C131.5116,23.4424 132.8052,22.0432 132.8052,19.2976 L132.8052,7.3912 L134.9172,7.3912 L134.9172,19.2976 C134.9172,23.1784 132.8052,25.3168 129.2676,25.3168 Z M153.4412,25 L151.1708,25 L150.0356,21.0136 L143.7524,21.0136 L142.6172,25 L140.3468,25 L145.6532,7.3912 L148.1612,7.3912 L153.4412,25 Z M149.5868,19.1392 L146.894,9.7144 L144.2012,19.1392 L149.5868,19.1392 Z M169.6684,25 L167.2924,25 L163.8868,17.9512 L161.3524,17.9512 L161.3524,25 L159.2404,25 L159.2404,7.3912 L164.626,7.3912 C167.4508,7.3912 169.4836,9.424 169.4836,12.6448 C169.4836,15.7864 167.7148,17.3176 165.9724,17.6344 L169.6684,25 Z M164.3884,16.1032 C166.21,16.1032 167.3188,14.6776 167.3188,12.6712 C167.3188,10.6648 166.21,9.2656 164.3884,9.2656 L161.3524,9.2656 L161.3524,16.1032 L164.3884,16.1032 Z M186.8724,25 L184.4964,25 L181.0908,17.9512 L178.5564,17.9512 L178.5564,25 L176.4444,25 L176.4444,7.3912 L181.83,7.3912 C184.6548,7.3912 186.6876,9.424 186.6876,12.6448 C186.6876,15.7864 184.9188,17.3176 183.1764,17.6344 L186.8724,25 Z M181.5924,16.1032 C183.414,16.1032 184.5228,14.6776 184.5228,12.6712 C184.5228,10.6648 183.414,9.2656 181.5924,9.2656 L178.5564,9.2656 L178.5564,16.1032 L181.5924,16.1032 Z M199.166,25 L197.0804,25 L197.0804,17.5552 L191.642,7.3912 L193.9916,7.3912 L198.1364,15.5224 L202.2812,7.3912 L204.6044,7.3912 L199.166,17.5552 L199.166,25 Z" id="The-Quarry"></path>
            </g>
        </g>
    </g>
</svg>