<svg xmlns="http://www.w3.org/2000/svg" viewBox="0 0 310.76 354.56"><defs><style>.cls-1,.cls-2{fill:#fff;}.cls-2{stroke:#fff;stroke-linecap:round;stroke-linejoin:round;}</style></defs><title>Asset 1</title><g id="Layer_2" data-name="Layer 2"><g id="Layer_1-2" data-name="Layer 1"><path class="cls-1" d="M155.38,8.4a5.34,5.34,0,0,1,2.7.73L299.65,90.86a5.42,5.42,0,0,1,2.7,4.69V259a5.43,5.43,0,0,1-2.7,4.69L158.08,345.43a5.44,5.44,0,0,1-5.41,0L11.11,263.7A5.44,5.44,0,0,1,8.4,259V95.55a5.43,5.43,0,0,1,2.71-4.69L152.67,9.13a5.37,5.37,0,0,1,2.71-.73m0-8.4a13.85,13.85,0,0,0-6.91,1.85L6.91,83.58A13.81,13.81,0,0,0,0,95.55V259a13.78,13.78,0,0,0,6.91,12L148.47,352.7a13.77,13.77,0,0,0,13.82,0L303.85,271a13.81,13.81,0,0,0,6.91-12V95.55a13.83,13.83,0,0,0-6.91-12L162.29,1.85A13.88,13.88,0,0,0,155.38,0Z"/><path class="cls-2" d="M122.26,135.18h-6.11v-6.7H136v6.7h-6.1v33.59h-7.61Z"/><path class="cls-2" d="M158.8,151.37h-7.73v17.4h-7.61V128.48h7.61v16.25h7.73V128.48h7.62v40.29H158.8Z"/><path class="cls-2" d="M176,128.48H193.6v6.7h-10v9.73h9.61v6.7h-9.61v10.46h10v6.7H176Z"/><path class="cls-2" d="M79.52,175.06c8.82,0,12.56,9,12.56,20.84s-3.74,20.84-12.56,20.84S67,207.74,67,195.9,70.63,175.06,79.52,175.06Zm0,6.76c-3.57,0-4.78,6-4.78,14.08S76,210,79.52,210s4.77-6.16,4.77-14.07S83.08,181.82,79.52,181.82Z"/><path class="cls-2" d="M100.36,175.72H108v29c0,3.92,1.51,5.31,3.86,5.31s3.87-1.39,3.87-5.31v-29h7.61v28.63c0,8.64-5.49,12.39-11.48,12.39s-11.47-3.75-11.47-12.39Z"/><path class="cls-2" d="M146.33,208.58H138L136.78,216h-7.43l8.4-40.29h8.76L155,216h-7.43Zm-7.43-6.7h6.52l-3.26-19.21Z"/><path class="cls-2" d="M171.46,201.21H169V216h-7.61V175.72h11.24c6.4,0,11,5.13,11,12.5,0,6.83-2.9,9.91-5.19,11.12L184,216h-8.15Zm0-18.78H169v12.08h2.48c2.84,0,4.41-2.42,4.41-6S174.3,182.43,171.46,182.43Z"/><path class="cls-2" d="M202.51,201.21H200V216h-7.61V175.72h11.24c6.4,0,11,5.13,11,12.5,0,6.83-2.9,9.91-5.19,11.12L215,216h-8.15Zm0-18.78H200v12.08h2.48c2.84,0,4.41-2.42,4.41-6S205.35,182.43,202.51,182.43Z"/><path class="cls-2" d="M228.91,199.34l-9.49-23.62h8.1L232.65,192l5.26-16.25h8l-9.42,23.62V216h-7.55Z"/><rect class="cls-2" x="81.34" y="209.12" width="6.97" height="9.87" transform="translate(-109.48 90.53) rotate(-35.94)"/></g></g></svg>